<svg xmlns="http://www.w3.org/2000/svg" viewBox="0 0 376.434 376.434" fill="#fff"><path d="M324.679 116.505l5.379-16.433L193.597 0h-10.76L46.376 100.072l5.381 16.433h22.012v68.749H54.485v18.194h19.283v68.848H54.485v18.194h19.283v67.748H54.485v18.194h267.462v-18.194h-19.281V290.49h19.281v-18.194h-19.281v-68.848h19.281v-18.194h-19.281v-68.749h22.013zm-40.207 241.734h-63.506V304.33H155.47v53.909H91.964v-67.748h192.508v67.748zM91.964 271.815v-68.232h192.508v68.232H91.964zm0-86.561v-68.231h192.508v68.231H91.964zm96.254-166.636L296.89 98.311H79.546l108.672-79.693z"/><path d="M108.388 216.804h23.199v43.211h-23.199zm45.488 0h23.197v43.211h-23.197zm45.486 0h23.197v43.211h-23.197zm45.487 0h23.197v43.211h-23.197zM108.388 127.65h23.199v43.211h-23.199zm45.488 0h23.197v43.211h-23.197zm45.486 0h23.197v43.211h-23.197zm45.487 0h23.197v43.211h-23.197z"/></svg>