<svg xmlns="http://www.w3.org/2000/svg" width="48" height="48"><linearGradient id="a" x1="9.766" x2="37.851" y1="5.625" y2="41.881" gradientUnits="userSpaceOnUse"><stop offset="0" stop-color="#33bef0"/><stop offset="1" stop-color="#0a85d9"/></linearGradient><path fill="url(#a)" d="M24 4C12.954 4 4 12.954 4 24s8.954 20 20 20 20-8.954 20-20S35.046 4 24 4z"/><path d="M31.411 34c-1.185 0-1.771-.77-2.584-1.834a30.034 30.034 0 00-1.212-1.514c-.802-.937-1.324-1.343-1.616-1.519v2.773C25.999 34 24.002 34 23.149 34c-3.154 0-6.549-2.069-9.081-5.535C10.747 23.922 10 19.844 10 18.774 10 17.68 10.724 17 11.89 17h2.644c1.544 0 1.946 1.231 2.119 1.756.78 2.614 1.707 4.458 2.348 5.447v-2.866c-.045-.803-.27-1.112-.508-1.439-.208-.284-.493-.673-.493-1.257 0-.92.711-1.641 1.619-1.641h4.648c.521 0 1.733.196 1.733 2.014v4.821c.043-.04.092-.089.149-.15 1.738-2.049 3.32-5.287 3.336-5.319.398-.889 1.107-1.366 2.046-1.366h2.618c1.231 0 1.816.795 1.85 1.584a2.24 2.24 0 01-.107.753c-.199.989-1.313 2.947-3.603 6.3l-.192.286-.053.09.018.025c.283.405.99 1.259 1.458 1.824 1.118 1.351 2.116 2.883 2.372 3.645.082.303.113.537.108.766-.024.861-.643 1.727-1.971 1.727h-2.618z" opacity=".05"/><path d="M31.411 33.5c-.937 0-1.407-.616-2.187-1.638-.318-.418-.709-.93-1.229-1.537-1.451-1.694-2.11-1.826-2.278-1.826a.994.994 0 00-.2.014c.012.013-.018.125-.018.42v2.971c0 1.323-.939 1.594-2.35 1.594-2.995 0-6.239-1.993-8.678-5.33-3.242-4.436-3.972-8.368-3.972-9.396 0-.821.493-1.274 1.39-1.274h2.644c1.09 0 1.42.729 1.644 1.412 1.176 3.938 2.731 6.314 3.29 6.569.017-.086.033-.243.033-.521v-3.623c-.054-.979-.346-1.379-.604-1.734-.186-.253-.396-.541-.396-.96 0-.65.481-1.141 1.119-1.141h4.648c.817 0 1.232.509 1.232 1.514v5.185c0 .257.157.303.164.304.227-.003.4-.003.848-.473 1.798-2.118 3.409-5.415 3.425-5.448.318-.713.856-1.082 1.595-1.082h2.618c.962 0 1.327.571 1.35 1.105a1.74 1.74 0 01-.085.584c-.255 1.25-2.142 4.12-3.538 6.166-.092.135-.195.29-.195.29-.075.129-.178.305-.182.379-.001.025.012.104.156.306.286.41.976 1.243 1.479 1.852 1.066 1.288 2.048 2.786 2.283 3.485.062.231.086.42.082.595-.017.6-.412 1.238-1.471 1.238h-2.617z" opacity=".07"/><path fill="#fff" d="M34.937 19.041c.046-.151.068-.291.062-.416-.015-.362-.264-.625-.85-.625h-2.618c-.661 0-.966.4-1.144.801 0 0-1.632 3.359-3.513 5.574-.61.641-.92.625-1.25.625-.177 0-.624-.214-.624-.801v-5.185c0-.694-.173-1.014-.732-1.014h-4.649c-.407 0-.619.32-.619.641 0 .667.898.827 1 2.696v3.623c0 .88-.153 1.04-.483 1.04-.89 0-2.642-3-3.815-6.932-.254-.774-.508-1.068-1.169-1.068H11.89c-.763 0-.89.374-.89.774 0 .721.6 4.619 3.875 9.101C17.25 31.125 20.379 33 23.149 33c1.678 0 1.85-.427 1.85-1.094v-2.972c.001-.801.184-.934.718-.934.381 0 1.158.25 2.658 2 1.73 2.018 2.044 3 3.036 3h2.618c.608 0 .957-.255.971-.75a1.542 1.542 0 00-.056-.424c-.194-.576-1.084-1.984-2.194-3.326-.615-.743-1.222-1.479-1.501-1.879-.187-.261-.258-.445-.249-.621.009-.185.105-.361.249-.607-.026 0 3.358-4.751 3.688-6.352z"/></svg>