<svg xmlns="http://www.w3.org/2000/svg" width="518.766" height="518.766"><path d="M177.504 0c-26.412 0-47.812 21.41-47.812 47.812v423.141c0 26.402 21.401 47.812 47.812 47.812h163.758c26.411 0 47.812-21.41 47.812-47.812V47.812C389.074 21.41 367.673 0 341.262 0H177.504zm143.017 13.234c2.534 0 4.58 2.046 4.58 4.581s-2.056 4.58-4.58 4.58c-2.534 0-4.58-2.046-4.58-4.58s2.055-4.581 4.58-4.581zm-13.149 0c2.534 0 4.58 2.046 4.58 4.581s-2.056 4.58-4.58 4.58a4.581 4.581 0 010-9.161zm-92.518-.277h75.64c2.678 0 4.829 2.161 4.829 4.829s-2.151 4.829-4.829 4.829h-75.64c-2.677 0-4.829-2.161-4.829-4.829s2.143-4.829 4.829-4.829zm-14.964.105a4.584 4.584 0 014.59 4.581c0 2.534-2.056 4.581-4.59 4.581s-4.581-2.046-4.581-4.581a4.587 4.587 0 014.581-4.581zm81.032 487.411l-12.89.803c-5.27.326-13.818.326-19.087 0l-12.891-.803c-5.269-.326-9.543-4.744-9.543-9.859s4.274-9.266 9.562-9.266h44.829c5.288 0 9.562 4.15 9.562 9.266s-4.273 9.532-9.542 9.859zm95.004-452.661v419.555H143.433V47.812h232.493zm-29.644-33a4.574 4.574 0 014.58 4.581 4.58 4.58 0 11-9.161 0c-.01-2.535 2.047-4.581 4.581-4.581z"/><circle cx="222.495" cy="17.786" r="1.606"/><circle cx="227.2" cy="17.786" r="1.606"/><circle cx="231.886" cy="17.786" r="1.606"/><circle cx="236.571" cy="17.786" r="1.606"/><circle cx="241.267" cy="17.786" r="1.606"/><circle cx="245.962" cy="17.786" r="1.606"/><circle cx="250.647" cy="17.786" r="1.606"/><circle cx="255.333" cy="17.786" r="1.606"/><circle cx="260.019" cy="17.786" r="1.606"/><circle cx="264.724" cy="17.786" r="1.606"/><circle cx="269.419" cy="17.786" r="1.606"/><circle cx="274.104" cy="17.786" r="1.606"/><circle cx="278.79" cy="17.786" r="1.606"/><circle cx="283.485" cy="17.786" r="1.606"/></svg>