<svg xmlns="http://www.w3.org/2000/svg" width="575.127" height="575.127"><path d="M128.936 475.24c11.465 5.557 28.142 2.821 37.246-6.11L555.424 92.77c9.084-8.951 6.32-18.159-6.178-20.607L412.78 45.444c-12.518-2.448-30.228 2.592-39.579 11.265L6.02 391.711c-9.343 8.664-7.622 20.196 3.854 25.771l119.062 57.758zm-28.478-49.333c-8.874 8.482-20.53 10.691-26.039 4.935-5.499-5.747-2.773-17.299 6.101-25.78 8.874-8.491 20.521-10.7 26.039-4.944 5.499 5.746 2.764 17.298-6.101 25.789zM415.744 85.416c.574-2.582 3.041-4.198 5.709-3.634l38.948 8.625a4.79 4.79 0 013.634 5.709 4.795 4.795 0 01-4.667 3.749c-.334 0-.679-.038-1.032-.115l-38.948-8.625a4.798 4.798 0 01-3.644-5.709zm-63.112 10.413l144.288 32.427-302.969 292.612-126.349-61.793 285.03-263.246z"/><path d="M566.487 99.625a31.874 31.874 0 01-4.36 5.288L172.828 481.332c-7.42 7.296-18.838 11.676-30.457 11.676-6.331 0-12.422-1.329-17.595-3.825L5.704 431.406c-.258-.134-.468-.315-.717-.449l2.419 8.405c2.64 9.189 11.848 19.832 20.55 23.782l116.041 65.168c8.702 3.939 21.43 1.846 28.42-4.667L563.82 148.002c6.981-6.522 12.011-19.546 11.227-29.07l-8.56-19.307z"/></svg>