<svg xmlns="http://www.w3.org/2000/svg" viewBox="0 0 512.001 512.001" fill="#fff"><path d="M256.001 0C114.509 0 0 114.497 0 256.001c0 141.491 114.496 256.001 256.001 256.001 141.49 0 256.001-114.496 256.001-256.001C512 114.51 397.504 0 256.001 0zm0 478.266c-122.558 0-222.267-99.708-222.267-222.266S133.442 33.734 256.001 33.734s222.267 99.708 222.267 222.267-99.709 222.265-222.267 222.265z"/><path d="M349.214 71.614c-8.312-4.201-18.459-.87-22.662 7.443l-57.687 114.108a64.182 64.182 0 00-12.866-1.298c-17.1 0-32.644 6.74-44.154 17.685l-44.271-26.801c-7.968-4.825-18.34-2.275-23.164 5.693-4.825 7.969-2.275 18.34 5.693 23.164l44.239 26.783A63.914 63.914 0 00191.864 256c0 35.363 28.77 64.133 64.133 64.133S320.13 291.363 320.13 256c.002-18.857-8.18-35.835-21.179-47.58l57.705-114.144c4.203-8.314.871-18.46-7.442-22.662zM256.001 286.4c-16.762 0-30.4-13.637-30.4-30.4s13.637-30.4 30.4-30.4 30.4 13.637 30.4 30.4-13.638 30.4-30.4 30.4zm0-242.634c-9.315 0-16.867 7.552-16.867 16.867V83.74c0 9.315 7.551 16.867 16.867 16.867 9.315 0 16.867-7.552 16.867-16.867V60.633c-.001-9.315-7.553-16.867-16.867-16.867zm0 365.527c-9.315 0-16.867 7.552-16.867 16.867v23.107c0 9.315 7.552 16.867 16.867 16.867s16.867-7.552 16.867-16.867V426.16c-.001-9.316-7.553-16.867-16.867-16.867zM185.002 98.245l-11.554-20.012c-4.657-8.068-14.973-10.832-23.04-6.173-8.067 4.657-10.831 14.973-6.173 23.04l11.554 20.012c4.66 8.071 14.978 10.828 23.04 6.173 8.066-4.658 10.83-14.974 6.173-23.04zM367.765 414.8l-11.554-20.012c-4.659-8.068-14.972-10.831-23.04-6.173s-10.832 14.973-6.173 23.04l11.554 20.012c4.657 8.067 14.972 10.831 23.04 6.173 8.068-4.657 10.832-14.973 6.173-23.04zM116.161 154.738L96.15 143.184c-8.068-4.661-18.383-1.894-23.04 6.173s-1.894 18.383 6.173 23.04l20.012 11.554c8.063 4.656 18.383 1.896 23.04-6.173 4.658-8.067 1.893-18.382-6.174-23.04zm316.557 182.764l-20.013-11.554c-8.068-4.66-18.384-1.895-23.04 6.173-4.659 8.067-1.895 18.383 6.173 23.04l20.013 11.554c8.06 4.655 18.379 1.899 23.04-6.173 4.658-8.067 1.894-18.383-6.173-23.04zM84.79 238.084H61.683c-9.315 0-16.867 7.552-16.867 16.867s7.552 16.867 16.867 16.867H84.79c9.315 0 16.867-7.552 16.867-16.867s-7.552-16.867-16.867-16.867zm365.528 0H427.21c-9.315 0-16.867 7.552-16.867 16.867s7.552 16.867 16.867 16.867h23.109c9.315 0 16.867-7.552 16.867-16.867s-7.553-16.867-16.868-16.867zm-327.983 94.037c-4.657-8.067-14.973-10.832-23.04-6.173l-20.012 11.554c-8.067 4.657-10.831 14.973-6.173 23.04 4.66 8.071 14.978 10.828 23.04 6.173l20.012-11.554c8.066-4.657 10.83-14.973 6.173-23.04zm316.557-182.762c-4.659-8.068-14.972-10.831-23.04-6.173l-20.013 11.554c-8.068 4.657-10.832 14.973-6.173 23.04 4.656 8.067 14.972 10.831 23.04 6.173l20.013-11.554c8.067-4.658 10.831-14.973 6.173-23.04zM178.828 388.615c-8.068-4.661-18.384-1.895-23.04 6.173L144.235 414.8c-4.657 8.067-1.894 18.383 6.173 23.04 8.062 4.656 18.38 1.897 23.04-6.173l11.554-20.012c4.657-8.067 1.893-18.382-6.174-23.04z"/></svg>