<?xml version="1.0" encoding="iso-8859-1"?>
<!-- Generator: Adobe Illustrator 18.0.0, SVG Export Plug-In . SVG Version: 6.00 Build 0)  -->
<!DOCTYPE svg PUBLIC "-//W3C//DTD SVG 1.1//EN" "http://www.w3.org/Graphics/SVG/1.1/DTD/svg11.dtd">
<svg version="1.1" id="Capa_1" xmlns="http://www.w3.org/2000/svg" xmlns:xlink="http://www.w3.org/1999/xlink" x="0px" y="0px"
	 viewBox="0 0 376.434 376.434" style="enable-background:new 0 0 376.434 376.434;" xml:space="preserve">
<g>
	<path d="M324.679,116.505l5.379-16.433L193.597,0h-10.76L46.376,100.072l5.381,16.433h22.012v68.749H54.485v18.194h19.283v68.366
		v0.482H54.485v18.194h19.283v67.748H54.485v18.194h19.283h228.898h19.281v-18.194h-19.281v-67.748h19.281v-18.194h-19.281v-0.482
		v-68.366h19.281v-18.194h-19.281v-68.749H324.679z M284.472,358.239h-63.506v-53.909H155.47v53.909H91.964v-67.748h192.508V358.239
		z M91.964,271.815v-68.232h192.508v68.232H91.964z M91.964,185.254v-68.231h192.508v68.231H91.964z M188.218,18.618L296.89,98.311
		H79.546L188.218,18.618z"/>
	<rect x="108.388" y="216.804" width="23.199" height="43.211"/>
	<rect x="153.876" y="216.804" width="23.197" height="43.211"/>
	<rect x="199.362" y="216.804" width="23.197" height="43.211"/>
	<rect x="244.849" y="216.804" width="23.197" height="43.211"/>
	<rect x="108.388" y="127.65" width="23.199" height="43.211"/>
	<rect x="153.876" y="127.65" width="23.197" height="43.211"/>
	<rect x="199.362" y="127.65" width="23.197" height="43.211"/>
	<rect x="244.849" y="127.65" width="23.197" height="43.211"/>
</g>
<g>
</g>
<g>
</g>
<g>
</g>
<g>
</g>
<g>
</g>
<g>
</g>
<g>
</g>
<g>
</g>
<g>
</g>
<g>
</g>
<g>
</g>
<g>
</g>
<g>
</g>
<g>
</g>
<g>
</g>
</svg>
