<?xml version="1.0" encoding="iso-8859-1"?>
<!-- Generator: Adobe Illustrator 16.0.0, SVG Export Plug-In . SVG Version: 6.00 Build 0)  -->
<!DOCTYPE svg PUBLIC "-//W3C//DTD SVG 1.1//EN" "http://www.w3.org/Graphics/SVG/1.1/DTD/svg11.dtd">
<svg version="1.1" id="Capa_1" xmlns="http://www.w3.org/2000/svg" xmlns:xlink="http://www.w3.org/1999/xlink" x="0px" y="0px"
	 width="518.766px" height="518.766px" viewBox="0 0 518.766 518.766" style="enable-background:new 0 0 518.766 518.766;"
	 xml:space="preserve" fill="white">
<g>
	<g>
		<path d="M177.504,0c-26.412,0-47.812,21.41-47.812,47.812v423.141c0,26.402,21.401,47.812,47.812,47.812h163.758
			c26.411,0,47.812-21.41,47.812-47.812V47.812C389.074,21.41,367.673,0,341.262,0H177.504z M320.521,13.234
			c2.534,0,4.58,2.046,4.58,4.581s-2.056,4.58-4.58,4.58c-2.534,0-4.58-2.046-4.58-4.58S317.996,13.234,320.521,13.234z
			 M307.372,13.234c2.534,0,4.58,2.046,4.58,4.581s-2.056,4.58-4.58,4.58c-2.534,0-4.58-2.046-4.58-4.58
			S304.848,13.234,307.372,13.234z M214.854,12.957h75.64c2.678,0,4.829,2.161,4.829,4.829s-2.151,4.829-4.829,4.829h-75.64
			c-2.677,0-4.829-2.161-4.829-4.829S212.168,12.957,214.854,12.957z M199.89,13.062c2.534,0,4.59,2.047,4.59,4.581
			c0,2.534-2.056,4.581-4.59,4.581s-4.581-2.046-4.581-4.581C195.309,15.118,197.365,13.062,199.89,13.062z M280.922,500.473
			l-12.89,0.803c-5.27,0.326-13.818,0.326-19.087,0l-12.891-0.803c-5.269-0.326-9.543-4.744-9.543-9.859s4.274-9.266,9.562-9.266
			h44.829c5.288,0,9.562,4.15,9.562,9.266S286.191,500.146,280.922,500.473z M375.926,47.812v419.555H143.433V47.812H375.926z
			 M346.282,14.812c2.534,0,4.58,2.046,4.58,4.581s-2.056,4.581-4.58,4.581c-2.534,0-4.581-2.046-4.581-4.581
			C341.691,16.858,343.748,14.812,346.282,14.812z"/>
		<circle cx="222.495" cy="17.786" r="1.606"/>
		<circle cx="227.2" cy="17.786" r="1.606"/>
		<circle cx="231.886" cy="17.786" r="1.606"/>
		<circle cx="236.571" cy="17.786" r="1.606"/>
		<circle cx="241.267" cy="17.786" r="1.606"/>
		<circle cx="245.962" cy="17.786" r="1.606"/>
		<circle cx="250.647" cy="17.786" r="1.606"/>
		<circle cx="255.333" cy="17.786" r="1.606"/>
		<circle cx="260.019" cy="17.786" r="1.606"/>
		<circle cx="264.724" cy="17.786" r="1.606"/>
		<circle cx="269.419" cy="17.786" r="1.606"/>
		<circle cx="274.104" cy="17.786" r="1.606"/>
		<circle cx="278.79" cy="17.786" r="1.606"/>
		<circle cx="283.485" cy="17.786" r="1.606"/>
	</g>
</g>
<g>
</g>
<g>
</g>
<g>
</g>
<g>
</g>
<g>
</g>
<g>
</g>
<g>
</g>
<g>
</g>
<g>
</g>
<g>
</g>
<g>
</g>
<g>
</g>
<g>
</g>
<g>
</g>
<g>
</g>
</svg>
