<?xml version="1.0" encoding="iso-8859-1"?>
<!-- Generator: Adobe Illustrator 16.0.0, SVG Export Plug-In . SVG Version: 6.00 Build 0)  -->
<!DOCTYPE svg PUBLIC "-//W3C//DTD SVG 1.1//EN" "http://www.w3.org/Graphics/SVG/1.1/DTD/svg11.dtd">
<svg version="1.1" id="Capa_1" xmlns="http://www.w3.org/2000/svg" xmlns:xlink="http://www.w3.org/1999/xlink" x="0px" y="0px"
	 width="575.127px" height="575.127px" viewBox="0 0 575.127 575.127" style="enable-background:new 0 0 575.127 575.127;"
	 xml:space="preserve">
<g>
	<path d="M128.936,475.24c11.465,5.557,28.142,2.821,37.246-6.11l389.242-376.36c9.084-8.951,6.32-18.159-6.178-20.607
		L412.78,45.444c-12.518-2.448-30.228,2.592-39.579,11.265L6.02,391.711c-9.343,8.664-7.622,20.196,3.854,25.771L128.936,475.24z
		 M100.458,425.907c-8.874,8.482-20.53,10.691-26.039,4.935c-5.499-5.747-2.773-17.299,6.101-25.78
		c8.874-8.491,20.521-10.7,26.039-4.944C112.058,405.864,109.323,417.416,100.458,425.907z M415.744,85.416
		c0.574-2.582,3.041-4.198,5.709-3.634l38.948,8.625c2.582,0.574,4.198,3.127,3.634,5.709c-0.497,2.228-2.477,3.749-4.667,3.749
		c-0.334,0-0.679-0.038-1.032-0.115l-38.948-8.625C416.806,90.55,415.18,87.997,415.744,85.416z M352.632,95.829l144.288,32.427
		L193.951,420.868L67.602,359.075L352.632,95.829z"/>
	<path d="M566.487,99.625c-1.186,1.817-2.639,3.596-4.36,5.288L172.828,481.332c-7.42,7.296-18.838,11.676-30.457,11.676
		c-6.331,0-12.422-1.329-17.595-3.825L5.704,431.406c-0.258-0.134-0.468-0.315-0.717-0.449l2.419,8.405
		c2.64,9.189,11.848,19.832,20.55,23.782l116.041,65.168c8.702,3.939,21.43,1.846,28.42-4.667l391.403-375.643
		c6.981-6.522,12.011-19.546,11.227-29.07L566.487,99.625z"/>
</g>
<g>
</g>
<g>
</g>
<g>
</g>
<g>
</g>
<g>
</g>
<g>
</g>
<g>
</g>
<g>
</g>
<g>
</g>
<g>
</g>
<g>
</g>
<g>
</g>
<g>
</g>
<g>
</g>
<g>
</g>
</svg>
