<?xml version="1.0" encoding="iso-8859-1"?>
<!-- Generator: Adobe Illustrator 19.0.0, SVG Export Plug-In . SVG Version: 6.00 Build 0)  -->
<svg version="1.1" id="Layer_1" xmlns="http://www.w3.org/2000/svg" xmlns:xlink="http://www.w3.org/1999/xlink" x="0px" y="0px"
	 viewBox="0 0 512.001 512.001" style="enable-background:new 0 0 512.001 512.001;" xml:space="preserve" fill='white'>
<g>
	<g>
		<path d="M256.001,0C114.509,0,0,114.497,0,256.001c0,141.491,114.496,256.001,256.001,256.001
			c141.49,0,256.001-114.496,256.001-256.001C512,114.51,397.504,0,256.001,0z M256.001,478.266
			c-122.558,0-222.267-99.708-222.267-222.266S133.442,33.734,256.001,33.734s222.267,99.708,222.267,222.267
			S378.559,478.266,256.001,478.266z"/>
	</g>
</g>
<g>
	<g>
		<path d="M349.214,71.614c-8.312-4.201-18.459-0.87-22.662,7.443l-57.687,114.108c-4.158-0.85-8.46-1.298-12.866-1.298
			c-17.1,0-32.644,6.74-44.154,17.685l-44.271-26.801c-7.968-4.825-18.34-2.275-23.164,5.693c-4.825,7.969-2.275,18.34,5.693,23.164
			l44.239,26.783c-1.602,5.6-2.478,11.502-2.478,17.609c0,35.363,28.77,64.133,64.133,64.133c35.363,0,64.133-28.77,64.133-64.133
			c0.002-18.857-8.18-35.835-21.179-47.58l57.705-114.144C360.859,85.962,357.527,75.816,349.214,71.614z M256.001,286.4
			c-16.762,0-30.4-13.637-30.4-30.4s13.637-30.4,30.4-30.4s30.4,13.637,30.4,30.4S272.763,286.4,256.001,286.4z"/>
	</g>
</g>
<g>
	<g>
		<path d="M256.001,43.766c-9.315,0-16.867,7.552-16.867,16.867V83.74c0,9.315,7.551,16.867,16.867,16.867
			c9.315,0,16.867-7.552,16.867-16.867V60.633C272.867,51.318,265.315,43.766,256.001,43.766z"/>
	</g>
</g>
<g>
	<g>
		<path d="M256.001,409.293c-9.315,0-16.867,7.552-16.867,16.867v23.107c0,9.315,7.552,16.867,16.867,16.867
			s16.867-7.552,16.867-16.867v-23.107C272.867,416.844,265.315,409.293,256.001,409.293z"/>
	</g>
</g>
<g>
	<g>
		<path d="M185.002,98.245l-11.554-20.012c-4.657-8.068-14.973-10.832-23.04-6.173c-8.067,4.657-10.831,14.973-6.173,23.04
			l11.554,20.012c4.66,8.071,14.978,10.828,23.04,6.173C186.895,116.627,189.659,106.311,185.002,98.245z"/>
	</g>
</g>
<g>
	<g>
		<path d="M367.765,414.8l-11.554-20.012c-4.659-8.068-14.972-10.831-23.04-6.173s-10.832,14.973-6.173,23.04l11.554,20.012
			c4.657,8.067,14.972,10.831,23.04,6.173C369.66,433.183,372.424,422.867,367.765,414.8z"/>
	</g>
</g>
<g>
	<g>
		<path d="M116.161,154.738L96.15,143.184c-8.068-4.661-18.383-1.894-23.04,6.173s-1.894,18.383,6.173,23.04l20.012,11.554
			c8.063,4.656,18.383,1.896,23.04-6.173C126.993,169.711,124.228,159.396,116.161,154.738z"/>
	</g>
</g>
<g>
	<g>
		<path d="M432.718,337.502l-20.013-11.554c-8.068-4.66-18.384-1.895-23.04,6.173c-4.659,8.067-1.895,18.383,6.173,23.04
			l20.013,11.554c8.06,4.655,18.379,1.899,23.04-6.173C443.549,352.475,440.785,342.159,432.718,337.502z"/>
	</g>
</g>
<g>
	<g>
		<path d="M84.79,238.084H61.683c-9.315,0-16.867,7.552-16.867,16.867s7.552,16.867,16.867,16.867H84.79
			c9.315,0,16.867-7.552,16.867-16.867S94.105,238.084,84.79,238.084z"/>
	</g>
</g>
<g>
	<g>
		<path d="M450.318,238.084H427.21c-9.315,0-16.867,7.552-16.867,16.867s7.552,16.867,16.867,16.867h23.109
			c9.315,0,16.867-7.552,16.867-16.867S459.633,238.084,450.318,238.084z"/>
	</g>
</g>
<g>
	<g>
		<path d="M122.335,332.121c-4.657-8.067-14.973-10.832-23.04-6.173l-20.012,11.554c-8.067,4.657-10.831,14.973-6.173,23.04
			c4.66,8.071,14.978,10.828,23.04,6.173l20.012-11.554C124.228,350.504,126.992,340.188,122.335,332.121z"/>
	</g>
</g>
<g>
	<g>
		<path d="M438.892,149.359c-4.659-8.068-14.972-10.831-23.04-6.173l-20.013,11.554c-8.068,4.657-10.832,14.973-6.173,23.04
			c4.656,8.067,14.972,10.831,23.04,6.173l20.013-11.554C440.786,167.741,443.55,157.426,438.892,149.359z"/>
	</g>
</g>
<g>
	<g>
		<path d="M178.828,388.615c-8.068-4.661-18.384-1.895-23.04,6.173L144.235,414.8c-4.657,8.067-1.894,18.383,6.173,23.04
			c8.062,4.656,18.38,1.897,23.04-6.173l11.554-20.012C189.659,403.588,186.895,393.273,178.828,388.615z"/>
	</g>
</g>
<g>
</g>
<g>
</g>
<g>
</g>
<g>
</g>
<g>
</g>
<g>
</g>
<g>
</g>
<g>
</g>
<g>
</g>
<g>
</g>
<g>
</g>
<g>
</g>
<g>
</g>
<g>
</g>
<g>
</g>
</svg>
